<svg width="40" height="41" viewBox="0 0 40 41" fill="none" xmlns="http://www.w3.org/2000/svg">
<path d="M18.3633 30.0766C18.3423 30.1346 18.3264 30.1873 18.3106 30.2242C17.562 32.2485 16.6079 33.6244 14.5414 34.3256C12.2271 35.1111 9.1695 33.1289 9.0957 30.6776C9.08515 30.3191 9.11678 29.9606 9.20113 29.6074C9.35928 28.9274 9.69667 28.3053 10.1448 27.7729C10.3767 27.4987 10.6298 27.2457 10.9039 27.019C11.1148 26.8398 11.3731 26.7238 11.6367 26.6236C12.1955 26.4128 12.8491 26.4075 13.4396 26.2862C14.2883 26.1123 15.1054 25.8223 15.8856 25.448C16.2652 25.2688 16.6342 25.0685 16.9927 24.8576C17.1667 24.7522 17.3354 24.6467 17.5041 24.536C17.5726 24.4939 17.9627 24.2883 17.968 24.2197C17.9258 24.7627 17.9047 25.3215 17.9047 25.8856C17.9047 27.1033 18.026 28.7323 18.3686 30.0766H18.3633Z" fill="white"/>
<path d="M17.8592 23.443C17.8592 23.443 17.8381 23.4588 17.8275 23.4693C17.6641 23.5958 17.4901 23.7171 17.3109 23.8436C17.1317 23.9649 16.9419 24.0914 16.7468 24.2126C16.4516 24.3919 16.1406 24.5658 15.819 24.7293C14.9492 25.1668 12.6138 26.0261 9.84619 26.0261C-1.40888 26.0261 -1.69355 -5.26141 16.5676 15.7568C15.7347 16.8217 15.2391 18.1818 15.2391 19.4681C15.2391 21.1814 16.1037 22.5679 17.5956 23.3217C17.6799 23.3639 17.7695 23.4061 17.8592 23.443Z" fill="white"/>
<path d="M22.5438 30.0766C22.5649 30.1346 22.5807 30.1873 22.5965 30.2242C23.3451 32.2485 24.2993 33.6244 26.3658 34.3256C28.68 35.1111 31.7376 33.1289 31.8114 30.6776C31.822 30.3191 31.7903 29.9606 31.706 29.6074C31.5478 28.9274 31.2105 28.3053 30.7624 27.7729C30.5304 27.4987 30.2774 27.2457 30.0032 27.019C29.7924 26.8398 29.5341 26.7238 29.2705 26.6236C28.7117 26.4128 28.058 26.4075 27.4676 26.2862C26.6188 26.1123 25.8017 25.8223 25.0215 25.448C24.6419 25.2688 24.2729 25.0685 23.9144 24.8576C23.7405 24.7522 23.5718 24.6467 23.4031 24.536C23.3345 24.4939 22.9444 24.2883 22.9392 24.2197C22.9813 24.7627 23.0024 25.3215 23.0024 25.8856C23.0024 27.1033 22.8812 28.7323 22.5385 30.0766H22.5438Z" fill="white"/>
<path d="M23.0499 23.4449C23.0499 23.4449 23.071 23.4607 23.0815 23.4713C23.2449 23.5978 23.4189 23.719 23.5981 23.8456C23.7774 23.9668 23.9672 24.0933 24.1622 24.2146C24.4574 24.3938 24.7685 24.5678 25.09 24.7312C25.9599 25.1688 28.2952 26.028 31.0629 26.028C42.3179 26.028 42.6026 -5.25946 24.3414 15.7588C25.1744 16.8237 25.6699 18.1838 25.6699 19.4701C25.6699 21.1834 24.8054 22.5698 23.3135 23.3237C23.2291 23.3658 23.1395 23.408 23.0499 23.4449Z" fill="white"/>
<path d="M24.837 19.4696C24.837 21.0828 23.9671 22.2162 22.6703 22.7961C22.5807 22.8382 22.4805 22.8751 22.3856 22.912H22.3804C22.2169 22.9753 22.0483 23.028 21.8743 23.0702C21.8901 23.1809 21.9059 23.2916 21.9165 23.4023C21.9586 23.6923 21.9903 23.998 22.0114 24.309C22.0272 24.4988 22.0377 24.6886 22.0483 24.8837C22.0641 25.2105 22.0693 25.5426 22.0693 25.8853C22.0693 26.191 22.0641 26.4915 22.0483 26.7867L22.0114 27.3877C21.9903 27.7198 21.9586 28.0414 21.9217 28.3472C21.6581 30.44 21.0677 31.895 20.3824 31.895C19.7445 31.895 19.1963 30.6562 18.9063 28.8269C18.8378 28.3788 18.7798 27.8991 18.7482 27.393C18.7271 27.1716 18.7165 26.9449 18.7113 26.7129C18.6955 26.4441 18.6902 26.1647 18.6902 25.8853C18.6902 25.5426 18.7007 25.2105 18.7165 24.8837L18.7534 24.2563C18.7693 24.0455 18.7903 23.8399 18.8114 23.6395C18.8378 23.4339 18.8641 23.2336 18.8905 23.0438C18.7851 23.0175 18.6849 22.9859 18.5847 22.9489H18.5742C17.0718 22.4218 16.028 21.2356 16.028 19.4696C16.028 18.3415 16.4497 17.187 17.1456 16.2644C17.2826 16.0747 17.4355 15.9007 17.5937 15.7373C18.3633 14.9518 19.3544 14.4404 20.4351 14.4404C21.5158 14.4404 22.5649 14.9834 23.3398 15.8111C23.498 15.9745 23.6456 16.1537 23.7774 16.3435C24.4363 17.2502 24.837 18.3784 24.837 19.4696Z" fill="white"/>
<path d="M19.191 19.3591C19.4763 19.3591 19.7076 19.031 19.7076 18.6263C19.7076 18.2216 19.4763 17.8936 19.191 17.8936C18.9057 17.8936 18.6744 18.2216 18.6744 18.6263C18.6744 19.031 18.9057 19.3591 19.191 19.3591Z" fill="black"/>
<path d="M19.075 18.4626C19.1798 18.4626 19.2648 18.3776 19.2648 18.2728C19.2648 18.168 19.1798 18.083 19.075 18.083C18.9702 18.083 18.8852 18.168 18.8852 18.2728C18.8852 18.3776 18.9702 18.4626 19.075 18.4626Z" fill="white"/>
<path d="M21.9586 19.3591C22.244 19.3591 22.4753 19.031 22.4753 18.6263C22.4753 18.2216 22.244 17.8936 21.9586 17.8936C21.6733 17.8936 21.442 18.2216 21.442 18.6263C21.442 19.031 21.6733 19.3591 21.9586 19.3591Z" fill="black"/>
<path d="M21.8427 18.4626C21.9475 18.4626 22.0324 18.3776 22.0324 18.2728C22.0324 18.168 21.9475 18.083 21.8427 18.083C21.7378 18.083 21.6529 18.168 21.6529 18.2728C21.6529 18.3776 21.7378 18.4626 21.8427 18.4626Z" fill="white"/>
<path d="M21.1099 19.9018C21.1099 20.2498 20.8252 20.487 20.5827 20.487C20.298 20.487 20.0503 20.2498 20.0503 19.9018C20.0503 19.9018 20.3191 19.9387 20.5827 19.9387C20.8463 19.9387 21.1099 19.8966 21.1099 19.9018Z" fill="black"/>
<path d="M18.7165 24.8842C19.1646 25.1741 19.6549 25.3217 20.1873 25.3323H20.2453C20.4246 25.3323 20.6038 25.3164 20.7936 25.2848C21.189 25.2216 21.6107 25.0898 22.0483 24.8842C22.0377 24.6891 22.0272 24.4993 22.0114 24.3096C21.5474 24.5521 21.1152 24.7049 20.7092 24.7682C20.5827 24.7945 20.4509 24.8051 20.3297 24.8051C19.7393 24.8262 19.2174 24.6417 18.7534 24.2568L18.7165 24.8842Z" fill="#A1B7BB"/>
<path d="M22.0482 26.7867L22.0113 27.3877C21.8848 27.4457 21.7583 27.4984 21.6318 27.5458C21.1415 27.7303 20.6829 27.8252 20.2453 27.8252C19.9185 27.8252 19.6074 27.7725 19.3175 27.6671C19.1172 27.6038 18.9274 27.5089 18.7482 27.3929C18.7271 27.1715 18.7165 26.9448 18.7113 26.7129C18.959 26.929 19.2226 27.0819 19.5073 27.1768C20.0766 27.3719 20.7198 27.3297 21.442 27.0608C21.6371 26.9817 21.8374 26.8921 22.0482 26.7867Z" fill="#A1B7BB"/>
<path d="M20.5089 17.2983C20.5353 16.1596 20.6565 15.0894 20.9886 13.9982C21.1837 13.355 21.5791 12.5537 21.9955 12.0213C22.2064 11.7472 22.4753 11.4625 22.7863 11.2991C22.897 11.2411 23.013 11.2727 23.1342 11.278C23.0551 11.4045 23.0024 11.4941 22.8812 11.5785C22.839 11.6101 22.7968 11.647 22.7599 11.6839C22.6914 11.7472 22.6281 11.821 22.5649 11.8895C22.4067 12.0793 22.2697 12.2849 22.1537 12.501C21.7794 13.1863 21.558 13.9507 21.4104 14.7151C21.247 15.5428 21.1679 16.3863 21.1362 17.2245L20.5089 17.293V17.2983Z" fill="white"/>
<path d="M24.0506 11.5805C24.5152 11.2857 24.6757 10.706 24.409 10.2856C24.1423 9.86515 23.5495 9.7633 23.0848 10.0581C22.6201 10.3528 22.4597 10.9326 22.7264 11.353C22.993 11.7734 23.5859 11.8753 24.0506 11.5805Z" fill="white"/>
<path d="M20.4351 17.2983C20.4088 16.1596 20.2875 15.0894 19.9554 13.9982C19.7603 13.355 19.365 12.5537 18.9485 12.0213C18.7376 11.7472 18.4688 11.4625 18.1577 11.2991C18.047 11.2411 17.9311 11.2727 17.8098 11.278C17.8889 11.4045 17.9416 11.4941 18.0629 11.5785C18.105 11.6101 18.1472 11.647 18.1841 11.6839C18.2526 11.7472 18.3159 11.821 18.3792 11.8895C18.5373 12.0793 18.6744 12.2849 18.7903 12.501C19.1646 13.1863 19.386 13.9507 19.5337 14.7151C19.6971 15.5428 19.7762 16.3863 19.8078 17.2245L20.4351 17.293V17.2983Z" fill="white"/>
<path d="M18.2264 11.3526C18.4962 10.9273 18.3343 10.341 17.8647 10.0431C17.3951 9.7452 16.7957 9.84851 16.5259 10.2738C16.2561 10.6992 16.4181 11.2854 16.8876 11.5833C17.3572 11.8812 17.9566 11.7779 18.2264 11.3526Z" fill="white"/>
<path d="M18.3633 30.0766C18.3423 30.1346 18.3264 30.1873 18.3106 30.2242C17.562 32.2485 16.6079 33.6244 14.5414 34.3256C12.2271 35.1111 9.1695 33.1289 9.0957 30.6776C9.08515 30.3191 9.11678 29.9606 9.20113 29.6074C9.35928 28.9274 9.69667 28.3053 10.1448 27.7729C10.3767 27.4987 10.6298 27.2457 10.9039 27.019C11.1148 26.8398 11.3731 26.7238 11.6367 26.6236C12.1955 26.4128 12.8491 26.4075 13.4396 26.2862C14.2883 26.1123 15.1054 25.8223 15.8856 25.448C16.2652 25.2688 16.6342 25.0685 16.9927 24.8576C17.1667 24.7522 17.3354 24.6467 17.5041 24.536C17.5726 24.4939 17.9627 24.2883 17.968 24.2197C17.9258 24.7627 17.9047 25.3215 17.9047 25.8856C17.9047 27.1033 18.026 28.7323 18.3686 30.0766H18.3633Z" fill="white"/>
<path d="M17.8592 23.443C17.8592 23.443 17.8381 23.4588 17.8275 23.4693C17.6641 23.5958 17.4901 23.7171 17.3109 23.8436C17.1317 23.9649 16.9419 24.0914 16.7468 24.2126C16.4516 24.3919 16.1406 24.5658 15.819 24.7293C14.9492 25.1668 12.6138 26.0261 9.84619 26.0261C-1.40888 26.0261 -1.69355 -5.26141 16.5676 15.7568C15.7347 16.8217 15.2391 18.1818 15.2391 19.4681C15.2391 21.1814 16.1037 22.5679 17.5956 23.3217C17.6799 23.3639 17.7695 23.4061 17.8592 23.443Z" fill="white"/>
<path d="M22.5438 30.0766C22.5649 30.1346 22.5807 30.1873 22.5965 30.2242C23.3451 32.2485 24.2993 33.6244 26.3658 34.3256C28.68 35.1111 31.7376 33.1289 31.8114 30.6776C31.822 30.3191 31.7903 29.9606 31.706 29.6074C31.5478 28.9274 31.2105 28.3053 30.7624 27.7729C30.5304 27.4987 30.2774 27.2457 30.0032 27.019C29.7924 26.8398 29.5341 26.7238 29.2705 26.6236C28.7117 26.4128 28.058 26.4075 27.4676 26.2862C26.6188 26.1123 25.8017 25.8223 25.0215 25.448C24.6419 25.2688 24.2729 25.0685 23.9144 24.8576C23.7405 24.7522 23.5718 24.6467 23.4031 24.536C23.3345 24.4939 22.9444 24.2883 22.9392 24.2197C22.9813 24.7627 23.0024 25.3215 23.0024 25.8856C23.0024 27.1033 22.8812 28.7323 22.5385 30.0766H22.5438Z" fill="white"/>
<path d="M23.0499 23.4449C23.0499 23.4449 23.071 23.4607 23.0815 23.4713C23.2449 23.5978 23.4189 23.719 23.5981 23.8456C23.7774 23.9668 23.9672 24.0933 24.1622 24.2146C24.4574 24.3938 24.7685 24.5678 25.09 24.7312C25.9599 25.1688 28.2952 26.028 31.0629 26.028C42.3179 26.028 42.6026 -5.25946 24.3414 15.7588C25.1744 16.8237 25.6699 18.1838 25.6699 19.4701C25.6699 21.1834 24.8054 22.5698 23.3135 23.3237C23.2291 23.3658 23.1395 23.408 23.0499 23.4449Z" fill="white"/>
<path d="M24.837 19.4696C24.837 21.0828 23.9671 22.2162 22.6703 22.7961C22.5807 22.8382 22.4805 22.8751 22.3856 22.912H22.3804C22.2169 22.9753 22.0483 23.028 21.8743 23.0702C21.8901 23.1809 21.9059 23.2916 21.9165 23.4023C21.9586 23.6923 21.9903 23.998 22.0114 24.309C22.0272 24.4988 22.0377 24.6886 22.0483 24.8837C22.0641 25.2105 22.0693 25.5426 22.0693 25.8853C22.0693 26.191 22.0641 26.4915 22.0483 26.7867L22.0114 27.3877C21.9903 27.7198 21.9586 28.0414 21.9217 28.3472C21.6581 30.44 21.0677 31.895 20.3824 31.895C19.7445 31.895 19.1963 30.6562 18.9063 28.8269C18.8378 28.3788 18.7798 27.8991 18.7482 27.393C18.7271 27.1716 18.7165 26.9449 18.7113 26.7129C18.6955 26.4441 18.6902 26.1647 18.6902 25.8853C18.6902 25.5426 18.7007 25.2105 18.7165 24.8837L18.7534 24.2563C18.7693 24.0455 18.7903 23.8399 18.8114 23.6395C18.8378 23.4339 18.8641 23.2336 18.8905 23.0438C18.7851 23.0175 18.6849 22.9859 18.5847 22.9489H18.5742C17.0718 22.4218 16.028 21.2356 16.028 19.4696C16.028 18.3415 16.4497 17.187 17.1456 16.2644C17.2826 16.0747 17.4355 15.9007 17.5937 15.7373C18.3633 14.9518 19.3544 14.4404 20.4351 14.4404C21.5158 14.4404 22.5649 14.9834 23.3398 15.8111C23.498 15.9745 23.6456 16.1537 23.7774 16.3435C24.4363 17.2502 24.837 18.3784 24.837 19.4696Z" fill="white"/>
<path d="M19.191 19.3591C19.4763 19.3591 19.7076 19.031 19.7076 18.6263C19.7076 18.2216 19.4763 17.8936 19.191 17.8936C18.9057 17.8936 18.6744 18.2216 18.6744 18.6263C18.6744 19.031 18.9057 19.3591 19.191 19.3591Z" fill="black"/>
<path d="M19.075 18.4626C19.1798 18.4626 19.2648 18.3776 19.2648 18.2728C19.2648 18.168 19.1798 18.083 19.075 18.083C18.9702 18.083 18.8852 18.168 18.8852 18.2728C18.8852 18.3776 18.9702 18.4626 19.075 18.4626Z" fill="white"/>
<path d="M21.9586 19.3591C22.244 19.3591 22.4753 19.031 22.4753 18.6263C22.4753 18.2216 22.244 17.8936 21.9586 17.8936C21.6733 17.8936 21.442 18.2216 21.442 18.6263C21.442 19.031 21.6733 19.3591 21.9586 19.3591Z" fill="black"/>
<path d="M21.8427 18.4626C21.9475 18.4626 22.0324 18.3776 22.0324 18.2728C22.0324 18.168 21.9475 18.083 21.8427 18.083C21.7378 18.083 21.6529 18.168 21.6529 18.2728C21.6529 18.3776 21.7378 18.4626 21.8427 18.4626Z" fill="white"/>
<path d="M21.1099 19.9018C21.1099 20.2498 20.8252 20.487 20.5827 20.487C20.298 20.487 20.0503 20.2498 20.0503 19.9018C20.0503 19.9018 20.3191 19.9387 20.5827 19.9387C20.8463 19.9387 21.1099 19.8966 21.1099 19.9018Z" fill="black"/>
<path d="M18.7165 24.8842C19.1646 25.1741 19.6549 25.3217 20.1873 25.3323H20.2453C20.4246 25.3323 20.6038 25.3164 20.7936 25.2848C21.189 25.2216 21.6107 25.0898 22.0483 24.8842C22.0377 24.6891 22.0272 24.4993 22.0114 24.3096C21.5474 24.5521 21.1152 24.7049 20.7092 24.7682C20.5827 24.7945 20.4509 24.8051 20.3297 24.8051C19.7393 24.8262 19.2174 24.6417 18.7534 24.2568L18.7165 24.8842Z" fill="#A1B7BB"/>
<path d="M22.0482 26.7867L22.0113 27.3877C21.8848 27.4457 21.7583 27.4984 21.6318 27.5458C21.1415 27.7303 20.6829 27.8252 20.2453 27.8252C19.9185 27.8252 19.6074 27.7725 19.3175 27.6671C19.1172 27.6038 18.9274 27.5089 18.7482 27.3929C18.7271 27.1715 18.7165 26.9448 18.7113 26.7129C18.959 26.929 19.2226 27.0819 19.5073 27.1768C20.0766 27.3719 20.7198 27.3297 21.442 27.0608C21.6371 26.9817 21.8374 26.8921 22.0482 26.7867Z" fill="#A1B7BB"/>
<path d="M20.5089 17.2983C20.5353 16.1596 20.6565 15.0894 20.9886 13.9982C21.1837 13.355 21.5791 12.5537 21.9955 12.0213C22.2064 11.7472 22.4753 11.4625 22.7863 11.2991C22.897 11.2411 23.013 11.2727 23.1342 11.278C23.0551 11.4045 23.0024 11.4941 22.8812 11.5785C22.839 11.6101 22.7968 11.647 22.7599 11.6839C22.6914 11.7472 22.6281 11.821 22.5649 11.8895C22.4067 12.0793 22.2697 12.2849 22.1537 12.501C21.7794 13.1863 21.558 13.9507 21.4104 14.7151C21.247 15.5428 21.1679 16.3863 21.1362 17.2245L20.5089 17.293V17.2983Z" fill="white"/>
<path d="M24.0506 11.5805C24.5152 11.2857 24.6757 10.706 24.409 10.2856C24.1423 9.86515 23.5495 9.7633 23.0848 10.0581C22.6201 10.3528 22.4597 10.9326 22.7264 11.353C22.993 11.7734 23.5859 11.8753 24.0506 11.5805Z" fill="white"/>
<path d="M20.4351 17.2983C20.4088 16.1596 20.2875 15.0894 19.9554 13.9982C19.7603 13.355 19.365 12.5537 18.9485 12.0213C18.7376 11.7472 18.4688 11.4625 18.1577 11.2991C18.047 11.2411 17.9311 11.2727 17.8098 11.278C17.8889 11.4045 17.9416 11.4941 18.0629 11.5785C18.105 11.6101 18.1472 11.647 18.1841 11.6839C18.2526 11.7472 18.3159 11.821 18.3792 11.8895C18.5373 12.0793 18.6744 12.2849 18.7903 12.501C19.1646 13.1863 19.386 13.9507 19.5337 14.7151C19.6971 15.5428 19.7762 16.3863 19.8078 17.2245L20.4351 17.293V17.2983Z" fill="white"/>
<path d="M18.2264 11.3526C18.4962 10.9273 18.3343 10.341 17.8647 10.0431C17.3951 9.7452 16.7957 9.84851 16.5259 10.2738C16.2561 10.6992 16.4181 11.2854 16.8876 11.5833C17.3572 11.8812 17.9566 11.7779 18.2264 11.3526Z" fill="white"/>
</svg>
